<?xml version="1.0" encoding="UTF-8"?>
<svg width="300px" height="362px" viewBox="0 0 300 362" version="1.1" xmlns="http://www.w3.org/2000/svg" xmlns:xlink="http://www.w3.org/1999/xlink">
    <!-- Generator: Sketch 56.3 (81716) - https://sketch.com -->
    <title>OJS</title>
    <desc>Created with Sketch.</desc>
    <g id="Page-1" stroke="none" stroke-width="1" fill="none" fill-rule="evenodd">
        <g id="LOGOS" transform="translate(-1580.000000, -700.000000)" fill="#000000" fill-rule="nonzero">
            <path d="M1603.87837,942.635369 C1588.19419,942.635369 1581.79248,930.984262 1581.79248,921.253668 C1581.79248,912.739397 1588.38624,900 1604.19845,900 C1616.87383,900 1626.54041,907.554014 1626.54041,920.421446 C1626.54041,932.648706 1617.514,942.635369 1603.87837,942.635369 Z M1605.47879,940.458789 C1609.76794,940.458789 1620.52281,938.282209 1620.52281,922.021872 C1620.52281,909.154441 1612.58469,901.984529 1603.81435,901.984529 C1594.91598,901.984529 1587.74607,907.489997 1587.74607,919.589224 C1587.74607,932.13657 1594.72393,940.458789 1605.47879,940.458789 Z M1637.3913,926.118965 L1637.3913,916.516404 C1637.3913,907.682049 1637.3913,906.529741 1637.26327,904.80128 C1637.13524,903.136836 1636.6231,902.112563 1634.83062,901.728461 C1634.3825,901.664444 1633.35823,901.600427 1632.84609,901.600427 C1632.71806,901.600427 1632.46199,901.472393 1632.46199,901.280341 C1632.46199,900.896239 1632.78208,900.768205 1633.35823,900.768205 C1636.11096,900.768205 1639.6319,900.960256 1640.016,900.960256 C1641.36036,900.960256 1644.62523,900.768205 1647.24993,900.768205 C1654.29181,900.768205 1656.85249,903.072819 1657.74873,903.841024 C1658.96506,904.929314 1660.56548,907.42598 1660.56548,911.010936 C1660.56548,918.116831 1654.67591,923.302214 1646.67378,923.302214 C1646.41771,923.302214 1645.77754,923.302214 1645.45746,923.238197 C1645.20139,923.238197 1644.8813,923.110163 1644.8813,922.854094 C1644.8813,922.341958 1645.2654,922.341958 1646.48173,922.341958 C1651.53908,922.341958 1655.7642,918.885036 1655.7642,913.251534 C1655.7642,912.419312 1655.95626,908.578288 1653.01147,905.505468 C1649.87463,902.17658 1646.22566,902.496666 1645.07335,902.496666 C1644.24113,902.496666 1643.28087,902.6247 1642.89677,902.816751 C1642.57669,902.944785 1642.51267,903.392905 1642.51267,903.841024 L1642.51267,925.990931 C1642.51267,930.920245 1642.51267,935.529475 1642.76874,937.834089 C1642.96079,939.370499 1643.28087,940.65084 1645.00934,940.842891 C1645.77754,940.970926 1647.05788,941.09896 1647.57002,941.09896 C1647.82609,941.09896 1647.95412,941.226994 1647.95412,941.419045 C1647.95412,941.73913 1647.69805,941.931182 1647.05788,941.931182 C1643.72899,941.931182 1640.14404,941.73913 1639.82395,941.73913 C1639.75994,941.73913 1635.98293,941.931182 1634.19045,941.931182 C1633.6143,941.931182 1633.29421,941.803148 1633.29421,941.419045 C1633.29421,941.226994 1633.42225,941.09896 1633.74233,941.09896 C1634.19045,941.09896 1634.89464,940.970926 1635.40678,940.842891 C1636.55908,940.65084 1636.87917,939.370499 1637.07122,937.834089 C1637.3913,935.529475 1637.3913,930.920245 1637.3913,926.118965 Z M1671.16031,926.118965 L1671.16031,916.516404 C1671.16031,908.130168 1671.16031,906.593758 1671.03228,904.865297 C1670.90424,903.072819 1670.45612,902.17658 1668.59963,901.792478 C1668.21552,901.728461 1667.57535,901.664444 1667.06322,901.664444 C1666.6151,901.664444 1666.231,901.472393 1666.231,901.280341 C1666.231,900.896239 1666.55108,900.768205 1667.19125,900.768205 C1668.47159,900.768205 1670.20005,900.896239 1673.78501,900.960256 C1674.10509,900.960256 1685.50013,900.960256 1686.78047,900.896239 C1688.06082,900.832222 1688.765,900.768205 1689.27714,900.576154 C1689.66124,900.448119 1689.72526,900.384102 1689.98133,900.384102 C1690.10936,900.384102 1690.2374,900.512137 1690.2374,900.832222 C1690.2374,901.216324 1689.85329,902.112563 1689.72526,903.71299 C1689.66124,904.80128 1689.59723,905.825553 1689.53321,907.041878 C1689.53321,907.618031 1689.40517,908.002134 1689.08509,908.002134 C1688.765,908.002134 1688.63697,907.746066 1688.63697,907.297946 C1688.57295,906.33769 1688.3809,905.697519 1688.18885,905.2494 C1687.80475,903.969058 1687.22859,903.520939 1684.02774,903.328888 C1683.19552,903.264871 1676.85783,903.200854 1676.72979,903.200854 C1676.53774,903.200854 1676.40971,903.328888 1676.40971,903.71299 L1676.40971,918.244865 C1676.40971,918.628968 1676.47373,918.885036 1676.79381,918.885036 C1677.56202,918.885036 1684.09176,918.821019 1685.43612,918.692985 C1686.90851,918.628968 1687.86877,918.436917 1688.3809,917.732729 C1688.63697,917.348626 1688.82902,917.220592 1689.08509,917.220592 C1689.21312,917.220592 1689.34116,917.284609 1689.34116,917.604695 C1689.34116,917.92478 1689.08509,919.141104 1688.89304,920.997599 C1688.70099,922.790077 1688.70099,924.070419 1688.63697,924.902641 C1688.57295,925.414777 1688.44492,925.606828 1688.18885,925.606828 C1687.86877,925.606828 1687.80475,925.222726 1687.80475,924.774607 C1687.80475,924.390504 1687.74073,923.750333 1687.6127,923.238197 C1687.35663,922.405975 1686.97253,921.509736 1684.53988,921.317685 C1683.06748,921.189651 1677.8821,921.061616 1676.85783,921.061616 C1676.47373,921.061616 1676.40971,921.253668 1676.40971,921.509736 L1676.40971,926.182982 C1676.40971,928.167511 1676.34569,933.801014 1676.40971,934.889304 C1676.53774,937.257935 1676.85783,938.47426 1678.20219,939.050413 C1679.16244,939.498533 1680.69885,939.626567 1682.87543,939.626567 C1684.09176,939.626567 1686.1403,939.690584 1687.74073,939.242465 C1689.66124,938.666311 1690.10936,937.38597 1690.6215,935.017338 C1690.74953,934.377167 1690.94158,934.121099 1691.19765,934.121099 C1691.58176,934.121099 1691.58176,934.697253 1691.58176,935.081355 C1691.58176,935.529475 1691.06962,939.56255 1690.87757,940.65084 C1690.6215,941.931182 1690.17338,942.059216 1688.06082,942.059216 C1683.83569,942.059216 1682.04321,941.931182 1679.80261,941.931182 C1677.56202,941.867165 1674.61723,941.73913 1672.2486,941.73913 C1670.77621,941.73913 1669.55988,941.931182 1668.02347,941.931182 C1667.44732,941.931182 1667.12723,941.803148 1667.12723,941.483062 C1667.12723,941.226994 1667.3833,941.034943 1667.70339,941.034943 C1668.08749,941.034943 1668.53561,940.970926 1668.98373,940.842891 C1670.13604,940.586823 1670.90424,939.754601 1671.03228,935.785543 C1671.09629,933.608962 1671.16031,930.984262 1671.16031,926.118965 Z M1702.04855,933.929048 C1702.04855,903.392905 1702.11256,913.251534 1702.04855,902.6247 C1702.04855,900.640171 1702.2406,900 1702.75273,900 C1703.20085,900 1704.28914,901.280341 1704.73726,901.728461 C1705.31342,902.368632 1714.21179,911.459056 1723.17418,920.613497 C1728.16751,925.478794 1734.56922,932.072553 1736.23366,933.608962 L1735.52947,906.977861 C1735.46546,903.520939 1735.08136,902.368632 1733.35289,901.920512 C1732.2646,901.728461 1731.30435,901.664444 1730.85623,901.664444 C1730.21606,901.664444 1730.08802,901.408376 1730.08802,901.152307 C1730.08802,900.832222 1730.60016,900.768205 1731.24033,900.768205 C1733.99307,900.768205 1736.68178,900.960256 1737.25794,900.960256 C1737.89811,900.960256 1739.88264,900.768205 1742.3793,900.768205 C1743.08349,900.768205 1743.27554,900.832222 1743.27554,901.152307 C1743.27554,901.408376 1743.08349,901.600427 1742.69939,901.664444 C1742.31528,901.728461 1741.80315,901.728461 1741.09896,901.856495 C1739.62657,902.17658 1739.17845,902.816751 1739.17845,906.657775 L1739.05041,938.794345 C1739.05041,941.995199 1738.92238,942.315284 1738.47426,942.315284 C1738.02614,942.315284 1737.38597,941.867165 1734.24913,938.922379 C1733.99307,938.794345 1725.09469,929.959989 1719.52521,924.518538 C1712.86743,917.604695 1706.46572,910.946919 1704.8653,909.282475 L1705.69752,934.31315 C1705.82555,938.730328 1706.20966,940.394772 1707.81008,940.778874 C1708.83436,941.034943 1709.92265,941.034943 1710.43478,941.034943 C1710.94692,941.034943 1711.20299,941.226994 1711.20299,941.483062 C1711.20299,941.803148 1710.8829,941.931182 1710.17871,941.931182 C1706.72179,941.931182 1704.41718,941.73913 1703.96906,941.73913 C1703.52094,941.73913 1701.15231,941.931182 1698.39957,941.931182 C1697.82342,941.931182 1697.43932,941.867165 1697.43932,941.483062 C1697.43932,941.226994 1697.69539,941.034943 1698.33556,941.034943 C1698.78368,941.034943 1699.48786,941.034943 1700.32009,940.778874 C1701.72846,940.330755 1702.04855,938.602294 1702.04855,933.929048 Z M1593.5076,976.19872 L1593.5076,988.42598 C1593.5076,997.644439 1593.57162,1001.22939 1591.77914,1005.32649 C1590.62683,1008.07922 1588.06615,1010.6399 1583.07282,1013.96879 C1582.36863,1014.35289 1581.40838,1015.05708 1580.83222,1015.31315 C1580.7682,1015.37717 1580.64017,1015.37717 1580.44812,1015.37717 C1580.32009,1015.37717 1580,1015.31315 1580,1015.05708 C1580,1014.67298 1580.3841,1014.54495 1580.83222,1014.22486 C1581.47239,1013.90477 1582.2406,1013.2646 1582.6247,1012.8805 C1586.46572,1009.23153 1588.32222,1006.47879 1588.32222,991.818885 L1588.32222,976.19872 C1588.32222,967.748466 1588.32222,966.276074 1588.19419,964.547613 C1588.06615,962.819152 1587.49,961.922913 1585.69752,961.474793 C1585.31342,961.410776 1584.28914,961.346759 1583.77701,961.346759 C1583.58496,961.346759 1583.32889,961.154708 1583.32889,960.962657 C1583.32889,960.578554 1583.64897,960.45052 1584.28914,960.45052 C1586.97786,960.45052 1590.69085,960.642571 1590.8829,960.642571 C1591.13897,960.642571 1594.91598,960.45052 1596.70846,960.45052 C1597.34863,960.45052 1597.60469,960.578554 1597.60469,960.962657 C1597.60469,961.154708 1597.34863,961.346759 1597.22059,961.346759 C1596.83649,961.346759 1596.45239,961.410776 1595.7482,961.474793 C1594.27581,961.794879 1593.76367,962.755135 1593.63564,964.61163 C1593.5076,966.340091 1593.5076,967.748466 1593.5076,976.19872 Z M1620.59038,1002.31768 C1604.9062,1002.31768 1598.50449,990.666578 1598.50449,980.935983 C1598.50449,972.421712 1605.09825,959.682315 1620.91047,959.682315 C1633.58585,959.682315 1643.25242,967.23633 1643.25242,980.103761 C1643.25242,992.331022 1634.22602,1002.31768 1620.59038,1002.31768 Z M1622.19081,1000.1411 C1626.47995,1000.1411 1637.23482,997.964524 1637.23482,981.704188 C1637.23482,968.836756 1629.2967,961.666844 1620.52636,961.666844 C1611.62799,961.666844 1604.45808,967.172313 1604.45808,979.271539 C1604.45808,991.818885 1611.43594,1000.1411 1622.19081,1000.1411 Z M1654.01085,976.19872 L1654.01085,983.816751 C1654.01085,991.626834 1655.48324,994.955722 1657.91589,997.132302 C1660.66862,999.564951 1663.74144,1000.07709 1666.36614,1000.07709 C1669.69503,1000.07709 1672.70383,999.180848 1675.13648,996.364097 C1677.69716,993.419312 1678.27332,988.554014 1678.27332,982.984529 L1678.27332,976.19872 C1678.27332,967.812483 1678.27332,966.340091 1678.14528,964.61163 C1678.01725,962.755135 1677.8252,961.794879 1675.77665,961.474793 C1675.32853,961.410776 1674.56033,961.346759 1673.98417,961.346759 C1673.60007,961.346759 1673.344,961.154708 1673.344,960.962657 C1673.344,960.578554 1673.66409,960.45052 1674.24024,960.45052 C1676.99298,960.45052 1680.19383,960.642571 1680.4499,960.642571 C1680.76998,960.642571 1683.52272,960.45052 1685.3152,960.45052 C1685.95537,960.45052 1686.21143,960.578554 1686.21143,960.89864 C1686.21143,961.154708 1685.95537,961.346759 1685.57126,961.346759 C1685.18716,961.346759 1685.05913,961.346759 1684.41896,961.410776 C1682.62648,961.602827 1682.37041,962.755135 1682.24238,964.61163 C1682.17836,966.340091 1682.17836,967.812483 1682.17836,976.19872 L1682.17836,981.896239 C1682.17836,987.657775 1681.53819,994.571619 1676.99298,998.47666 C1672.83187,1001.9976 1668.73477,1002.31768 1665.27785,1002.31768 C1663.48537,1002.31768 1657.46777,1002.31768 1653.30666,998.47666 C1650.55393,995.915978 1648.5694,992.074953 1648.5694,984.136836 L1648.5694,976.19872 C1648.5694,967.748466 1648.5694,966.276074 1648.37735,964.547613 C1648.31333,962.819152 1647.99324,961.730862 1646.00871,961.474793 C1645.62461,961.410776 1644.85641,961.346759 1644.34427,961.346759 C1643.89615,961.346759 1643.64008,961.154708 1643.64008,960.962657 C1643.64008,960.578554 1643.89615,960.45052 1644.60034,960.45052 C1647.35307,960.45052 1650.80999,960.642571 1651.25811,960.642571 C1651.77025,960.642571 1655.54726,960.45052 1657.27572,960.45052 C1657.97991,960.45052 1658.17196,960.578554 1658.17196,960.89864 C1658.17196,961.218725 1657.72384,961.346759 1657.40375,961.346759 C1657.01965,961.346759 1656.50751,961.410776 1655.99538,961.474793 C1654.45897,961.666844 1654.2029,962.755135 1654.07486,964.547613 C1654.01085,966.276074 1654.01085,967.748466 1654.01085,976.19872 Z M1693.8188,985.80128 L1693.8188,976.19872 C1693.8188,967.748466 1693.8188,966.212057 1693.69076,964.483596 C1693.56273,962.755135 1693.11461,961.794879 1691.13008,961.410776 C1690.74598,961.346759 1690.10581,961.282742 1689.59367,961.282742 C1689.14555,961.282742 1688.88948,961.154708 1688.88948,960.89864 C1688.88948,960.642571 1689.08153,960.45052 1689.65769,960.45052 C1692.41042,960.45052 1696.31546,960.642571 1696.4435,960.642571 C1697.01965,960.642571 1701.37281,960.45052 1703.16529,960.45052 C1706.75024,960.45052 1710.65529,960.770605 1713.66409,962.883169 C1714.88041,963.779408 1717.50511,966.340091 1717.50511,970.693252 C1717.50511,974.21419 1715.77665,978.695385 1710.7193,982.792478 C1715.39255,988.554014 1719.23357,993.291278 1722.49844,996.684182 C1725.57126,999.821019 1727.49178,1000.33316 1729.28425,1000.58922 C1729.73237,1000.65324 1731.07673,1000.71726 1731.26878,1000.71726 C1731.78092,1000.71726 1731.97297,1000.90931 1731.97297,1001.16538 C1731.97297,1001.48546 1731.7169,1001.6135 1730.82066,1001.6135 L1726.33947,1001.6135 C1723.33067,1001.6135 1721.92229,1001.42145 1720.51392,1000.84529 C1717.8252,999.692985 1715.90469,996.812217 1712.5758,992.523073 C1710.07913,989.450253 1707.51845,985.993332 1706.43016,984.648973 C1706.17409,984.392905 1706.04606,984.264871 1705.66195,984.264871 L1699.0682,984.200854 C1698.81213,984.200854 1698.74811,984.264871 1698.74811,984.520939 L1698.74811,985.417178 C1698.74811,990.538544 1698.74811,995.21179 1699.0682,997.516404 C1699.26025,999.052814 1699.4523,1000.33316 1701.56486,1000.58922 C1702.20503,1000.65324 1702.90922,1000.71726 1703.42136,1000.71726 C1703.99751,1000.71726 1704.25358,1000.90931 1704.25358,1001.10136 C1704.25358,1001.42145 1703.99751,1001.6135 1703.35734,1001.6135 C1700.02845,1001.6135 1696.4435,1001.42145 1696.18743,1001.42145 C1695.16315,1001.42145 1692.3464,1001.6135 1690.61794,1001.6135 C1689.97777,1001.6135 1689.7217,1001.48546 1689.7217,1001.10136 C1689.7217,1000.90931 1690.10581,1000.71726 1690.48991,1000.71726 C1690.93803,1000.71726 1691.38615,1000.71726 1691.89828,1000.58922 C1692.98657,1000.39717 1693.37068,999.692985 1693.56273,998.156575 C1693.88281,995.851961 1693.8188,990.602561 1693.8188,985.80128 Z M1698.74811,963.331288 L1698.74811,980.743932 C1698.74811,981.064017 1698.81213,981.384102 1699.0682,981.512137 C1699.90042,981.960256 1702.4611,982.344358 1704.76572,982.344358 C1706.11007,982.344358 1707.7105,982.280341 1709.05486,981.384102 C1710.97537,980.167778 1712.25571,977.351027 1712.25571,973.253934 C1712.25571,966.276074 1708.54272,962.435049 1702.8452,962.435049 C1701.24478,962.435049 1699.90042,962.563083 1699.13221,962.755135 C1698.94016,962.819152 1698.74811,963.011203 1698.74811,963.331288 Z M1732.64515,993.611363 C1732.64515,963.07522 1732.70917,972.933849 1732.64515,962.307015 C1732.64515,960.322486 1732.8372,959.682315 1733.34934,959.682315 C1733.79746,959.682315 1734.88575,960.962657 1735.33387,961.410776 C1735.91002,962.050947 1744.80839,971.141371 1753.77078,980.295812 C1758.76412,985.16111 1765.16582,991.754868 1766.83027,993.291278 L1766.12608,966.660176 C1766.06206,963.203254 1765.67796,962.050947 1763.9495,961.602827 C1762.86121,961.410776 1761.90095,961.346759 1761.45283,961.346759 C1760.81266,961.346759 1760.68463,961.090691 1760.68463,960.834623 C1760.68463,960.514537 1761.19676,960.45052 1761.83693,960.45052 C1764.58967,960.45052 1767.27839,960.642571 1767.85454,960.642571 C1768.49471,960.642571 1770.47924,960.45052 1772.9759,960.45052 C1773.68009,960.45052 1773.87214,960.514537 1773.87214,960.834623 C1773.87214,961.090691 1773.68009,961.282742 1773.29599,961.346759 C1772.91189,961.410776 1772.39975,961.410776 1771.69556,961.53881 C1770.22317,961.858896 1769.77505,962.499066 1769.77505,966.340091 L1769.64702,998.47666 C1769.64702,1001.67751 1769.51898,1001.9976 1769.07086,1001.9976 C1768.62274,1001.9976 1767.98257,1001.54948 1764.84574,998.604695 C1764.58967,998.47666 1755.6913,989.642305 1750.12181,984.200854 C1743.46404,977.28701 1737.06233,970.629234 1735.4619,968.964791 L1736.29412,993.995465 C1736.42216,998.412643 1736.80626,1000.07709 1738.40669,1000.46119 C1739.43096,1000.71726 1740.51925,1000.71726 1741.03139,1000.71726 C1741.54352,1000.71726 1741.79959,1000.90931 1741.79959,1001.16538 C1741.79959,1001.48546 1741.47951,1001.6135 1740.77532,1001.6135 C1737.3184,1001.6135 1735.01378,1001.42145 1734.56566,1001.42145 C1734.11754,1001.42145 1731.74891,1001.6135 1728.99618,1001.6135 C1728.42002,1001.6135 1728.03592,1001.54948 1728.03592,1001.16538 C1728.03592,1000.90931 1728.29199,1000.71726 1728.93216,1000.71726 C1729.38028,1000.71726 1730.08447,1000.71726 1730.91669,1000.46119 C1732.32506,1000.01307 1732.64515,998.284609 1732.64515,993.611363 Z M1798.69299,985.993332 L1787.04188,985.993332 C1786.72179,985.993332 1786.52974,986.185383 1786.40171,986.505468 L1783.58496,994.507602 C1782.94479,996.30008 1782.49667,998.028541 1782.49667,999.052814 C1782.49667,1000.20512 1783.20085,1000.71726 1784.60923,1000.71726 L1785.05735,1000.71726 C1785.6335,1000.71726 1785.82555,1000.90931 1785.82555,1001.16538 C1785.82555,1001.48546 1785.31342,1001.6135 1784.8653,1001.6135 C1783.45692,1001.6135 1780.51214,1001.42145 1779.80795,1001.42145 C1779.16778,1001.42145 1776.35103,1001.6135 1773.66231,1001.6135 C1772.95812,1001.6135 1772.63804,1001.48546 1772.63804,1001.16538 C1772.63804,1000.90931 1772.89411,1000.71726 1773.40624,1000.71726 C1773.72633,1000.71726 1774.30248,1000.71726 1774.68658,1000.65324 C1777.43932,1000.39717 1778.52761,998.284609 1779.6159,995.595892 L1792.41931,961.858896 C1793.1235,960.002401 1793.31555,959.682315 1793.76367,959.682315 C1794.08376,959.682315 1794.33982,959.938384 1795.04401,961.730862 C1795.94025,963.843425 1804.64657,986.185383 1808.03948,994.187517 C1810.15204,999.244865 1812.00854,1000.07709 1812.90477,1000.39717 C1813.737,1000.71726 1814.63324,1000.71726 1815.08136,1000.71726 C1815.52947,1000.71726 1815.84956,1000.84529 1815.84956,1001.16538 C1815.84956,1001.48546 1815.59349,1001.6135 1814.8893,1001.6135 C1814.24913,1001.6135 1809.44785,1001.6135 1805.15871,1001.48546 C1803.94239,1001.42145 1803.55828,1001.35743 1803.55828,1001.03734 C1803.55828,1000.84529 1803.75033,1000.65324 1804.0064,1000.58922 C1804.26247,1000.46119 1804.64657,1000.1411 1804.26247,999.180848 L1799.20512,986.313417 C1799.07709,986.121366 1798.94905,985.993332 1798.69299,985.993332 Z M1787.68205,983.752734 L1797.92478,983.752734 C1798.18085,983.752734 1798.18085,983.560683 1798.11683,983.368632 L1793.05948,969.220859 C1792.7394,968.32462 1792.67538,968.32462 1792.3553,969.220859 L1787.55401,983.368632 C1787.42598,983.6247 1787.55401,983.752734 1787.68205,983.752734 Z M1824.16111,976.19872 L1824.16111,985.929314 C1824.16111,993.291278 1824.41718,997.004268 1825.50547,998.028541 C1826.52974,998.92478 1827.81008,999.308882 1832.22726,999.308882 C1835.04401,999.308882 1837.6047,999.308882 1839.01307,997.516404 C1839.65324,996.556148 1840.10136,995.275807 1840.22939,994.315551 C1840.29341,993.803414 1840.42145,993.547346 1840.74153,993.547346 C1840.9976,993.547346 1841.12563,993.739397 1841.12563,994.379568 C1841.12563,995.019739 1840.74153,998.668712 1840.35743,1000.1411 C1839.97333,1001.42145 1840.03734,1001.74153 1836.96452,1001.74153 C1832.61136,1001.74153 1827.81008,1001.42145 1821.40838,1001.42145 C1819.29581,1001.42145 1818.01547,1001.6135 1815.77487,1001.6135 C1815.1347,1001.6135 1814.7506,1001.48546 1814.7506,1001.10136 C1814.7506,1000.90931 1814.94265,1000.71726 1815.45479,1000.71726 C1815.96692,1000.71726 1816.47906,1000.71726 1816.9912,1000.58922 C1818.07949,1000.39717 1818.46359,999.116831 1818.65564,997.580421 C1819.03974,995.147773 1818.91171,990.730595 1818.91171,985.80128 L1818.91171,976.19872 C1818.91171,967.748466 1818.91171,966.340091 1818.78368,964.61163 C1818.65564,962.819152 1818.39957,961.666844 1816.22299,961.410776 C1815.83889,961.346759 1815.1347,961.346759 1814.62257,961.346759 C1814.17445,961.346759 1813.91838,961.154708 1813.91838,960.89864 C1813.91838,960.578554 1814.23846,960.45052 1814.87863,960.45052 C1817.56735,960.45052 1821.40838,960.642571 1821.53641,960.642571 C1822.43265,960.642571 1826.33769,960.45052 1828.13017,960.45052 C1828.77034,960.45052 1828.96239,960.642571 1828.96239,960.89864 C1828.96239,961.154708 1828.64231,961.346759 1828.2582,961.346759 C1827.81008,961.346759 1827.16991,961.410776 1826.52974,961.474793 C1824.73726,961.730862 1824.35316,962.755135 1824.22513,964.61163 C1824.09709,966.340091 1824.16111,967.748466 1824.16111,976.19872 Z M1592.61136,1062 C1589.92265,1062 1587.42598,1061.67991 1584.99333,1060.59162 C1584.16111,1060.20752 1584.16111,1059.95145 1584.16111,1058.41504 C1584.16111,1055.47026 1584.35316,1053.29368 1584.41718,1052.39744 C1584.48119,1051.82129 1584.60923,1051.5012 1584.92931,1051.5012 C1585.2494,1051.5012 1585.37743,1051.69325 1585.37743,1052.14137 C1585.37743,1052.52547 1585.37743,1053.29368 1585.56949,1054.06188 C1586.40171,1058.22299 1590.17871,1059.82342 1593.8917,1059.82342 C1599.20512,1059.82342 1601.7658,1056.17445 1601.7658,1052.97359 C1601.7658,1049.32462 1600.10136,1047.08402 1595.42811,1043.30702 L1592.86743,1041.32249 C1586.72179,1036.39317 1585.44145,1033.00027 1585.44145,1029.22326 C1585.44145,1023.33369 1590.1147,1019.36463 1597.28461,1019.36463 C1599.52521,1019.36463 1601.06162,1019.55668 1602.46999,1019.87677 C1603.68632,1020.13284 1604.19845,1020.19685 1604.64657,1020.19685 C1605.09469,1020.19685 1605.22273,1020.32489 1605.22273,1020.58095 C1605.22273,1020.83702 1604.96666,1023.07762 1604.96666,1026.79061 C1604.96666,1027.75087 1604.83862,1028.13497 1604.51854,1028.13497 C1604.19845,1028.13497 1604.13444,1027.8789 1604.07042,1027.43078 C1604.0064,1026.85463 1603.87837,1025.51027 1603.30221,1024.42198 C1602.98213,1023.84583 1601.50974,1021.41318 1596.1323,1021.41318 C1592.29128,1021.41318 1589.41051,1023.71779 1589.41051,1027.55882 C1589.41051,1030.56762 1590.94692,1032.42411 1596.26034,1036.45719 L1597.73273,1037.6095 C1604.3905,1042.73086 1606.11897,1046.12377 1606.11897,1050.66898 C1606.11897,1052.97359 1605.15871,1057.07069 1601.25367,1059.7594 C1598.757,1061.35983 1595.68418,1062 1592.61136,1062 Z M1626.06028,1052.01334 L1626.06028,1047.34009 C1626.06028,1044.26727 1625.61216,1043.11496 1624.65191,1041.45052 C1624.2678,1040.74633 1616.84182,1028.64711 1614.8573,1025.89437 C1613.12883,1023.46172 1612.48866,1022.69352 1611.59242,1021.98933 C1610.69619,1021.34916 1609.86396,1021.09309 1608.58362,1021.02907 C1608.19952,1021.02907 1607.87943,1020.83702 1607.87943,1020.51694 C1607.87943,1020.32489 1608.1355,1020.13284 1608.64764,1020.13284 C1609.67191,1020.13284 1614.53721,1020.32489 1614.66524,1020.32489 C1615.04935,1020.32489 1617.16191,1020.13284 1619.53054,1020.13284 C1620.17071,1020.13284 1620.36276,1020.32489 1620.36276,1020.51694 C1620.36276,1020.77301 1620.17071,1020.90104 1619.65858,1021.02907 C1618.76234,1021.22113 1618.6343,1021.54121 1618.6343,1022.05335 C1618.6343,1022.69352 1619.0184,1023.33369 1619.46652,1024.16591 C1620.29875,1025.76634 1628.749,1039.33796 1629.70926,1040.93838 C1630.73353,1038.69779 1637.90344,1026.98266 1638.79968,1025.38224 C1640.016,1023.26967 1640.27207,1022.69352 1640.27207,1021.98933 C1640.27207,1021.15711 1639.50387,1021.15711 1638.79968,1021.02907 C1638.28754,1020.96506 1638.09549,1020.77301 1638.09549,1020.51694 C1638.09549,1020.32489 1638.22353,1020.13284 1638.8637,1020.13284 C1640.40011,1020.13284 1641.74447,1020.32489 1642.76874,1020.32489 C1643.60096,1020.32489 1647.31395,1020.13284 1648.40224,1020.13284 C1648.97839,1020.13284 1649.17045,1020.32489 1649.17045,1020.51694 C1649.17045,1020.83702 1648.85036,1021.02907 1648.40224,1021.02907 C1647.05788,1021.09309 1646.09763,1021.22113 1645.20139,1021.8613 C1644.24113,1022.50147 1643.85703,1023.07762 1642.83276,1024.486 C1639.11977,1029.60736 1632.91011,1040.04214 1631.94985,1042.28274 C1631.18165,1044.26727 1631.30968,1045.67565 1631.30968,1047.34009 L1631.30968,1052.01334 C1631.30968,1052.46146 1631.30968,1054.83009 1631.43772,1057.1347 C1631.56575,1058.67111 1631.69379,1059.7594 1633.67831,1060.1435 C1634.51054,1060.33556 1635.59883,1060.39957 1636.04695,1060.39957 C1636.55908,1060.39957 1636.75113,1060.59162 1636.75113,1060.78368 C1636.75113,1061.10376 1636.55908,1061.29581 1635.98293,1061.29581 C1632.78208,1061.29581 1628.81302,1061.10376 1628.62097,1061.10376 C1628.49293,1061.10376 1624.65191,1061.29581 1622.85943,1061.29581 C1622.21926,1061.29581 1621.96319,1061.10376 1621.96319,1060.78368 C1621.96319,1060.59162 1622.15524,1060.39957 1622.60336,1060.39957 C1623.1155,1060.39957 1623.69165,1060.33556 1624.20379,1060.20752 C1625.29208,1060.01547 1625.7402,1058.67111 1625.86823,1057.1347 C1626.06028,1054.83009 1626.06028,1052.52547 1626.06028,1052.01334 Z M1659.06108,1062 C1656.37237,1062 1653.8757,1061.67991 1651.44305,1060.59162 C1650.61083,1060.20752 1650.61083,1059.95145 1650.61083,1058.41504 C1650.61083,1055.47026 1650.80288,1053.29368 1650.8669,1052.39744 C1650.93092,1051.82129 1651.05895,1051.5012 1651.37903,1051.5012 C1651.69912,1051.5012 1651.82715,1051.69325 1651.82715,1052.14137 C1651.82715,1052.52547 1651.82715,1053.29368 1652.01921,1054.06188 C1652.85143,1058.22299 1656.62843,1059.82342 1660.34142,1059.82342 C1665.65484,1059.82342 1668.21552,1056.17445 1668.21552,1052.97359 C1668.21552,1049.32462 1666.55108,1047.08402 1661.87783,1043.30702 L1659.31715,1041.32249 C1653.17151,1036.39317 1651.89117,1033.00027 1651.89117,1029.22326 C1651.89117,1023.33369 1656.56442,1019.36463 1663.73433,1019.36463 C1665.97493,1019.36463 1667.51134,1019.55668 1668.91971,1019.87677 C1670.13604,1020.13284 1670.64817,1020.19685 1671.09629,1020.19685 C1671.54441,1020.19685 1671.67245,1020.32489 1671.67245,1020.58095 C1671.67245,1020.83702 1671.41638,1023.07762 1671.41638,1026.79061 C1671.41638,1027.75087 1671.28834,1028.13497 1670.96826,1028.13497 C1670.64817,1028.13497 1670.58416,1027.8789 1670.52014,1027.43078 C1670.45612,1026.85463 1670.32809,1025.51027 1669.75193,1024.42198 C1669.43185,1023.84583 1667.95946,1021.41318 1662.58202,1021.41318 C1658.741,1021.41318 1655.86023,1023.71779 1655.86023,1027.55882 C1655.86023,1030.56762 1657.39664,1032.42411 1662.71006,1036.45719 L1664.18245,1037.6095 C1670.84022,1042.73086 1672.56869,1046.12377 1672.56869,1050.66898 C1672.56869,1052.97359 1671.60843,1057.07069 1667.70339,1059.7594 C1665.20672,1061.35983 1662.1339,1062 1659.06108,1062 Z M1696.73513,1022.6295 L1696.73513,1045.4836 C1696.73513,1050.41291 1696.79915,1054.95812 1697.05521,1057.32675 C1697.24727,1058.86316 1697.3753,1059.7594 1698.97573,1060.1435 C1699.74393,1060.33556 1700.96026,1060.39957 1701.47239,1060.39957 C1701.98453,1060.39957 1702.2406,1060.59162 1702.2406,1060.78368 C1702.2406,1061.10376 1702.04855,1061.29581 1701.40838,1061.29581 C1698.14351,1061.29581 1694.3665,1061.10376 1694.11043,1061.10376 C1693.85436,1061.10376 1690.07735,1061.29581 1688.41291,1061.29581 C1687.70872,1061.29581 1687.45265,1061.16778 1687.45265,1060.84769 C1687.45265,1060.65564 1687.64471,1060.39957 1688.15684,1060.39957 C1688.66898,1060.39957 1689.05308,1060.39957 1689.56522,1060.33556 C1690.78154,1060.1435 1690.97359,1059.3753 1691.22966,1057.19872 C1691.48573,1054.89411 1691.48573,1050.28488 1691.48573,1045.4836 L1691.48573,1022.6295 C1689.37317,1022.6295 1685.98026,1022.6295 1683.41958,1022.69352 C1679.32249,1022.75754 1678.42625,1023.39771 1677.53001,1024.74206 C1676.95385,1025.6383 1676.69779,1026.40651 1676.56975,1026.72659 C1676.3777,1027.17471 1676.24967,1027.23873 1675.9936,1027.23873 C1675.73753,1027.23873 1675.67351,1026.98266 1675.67351,1026.66258 C1675.6095,1026.27847 1676.56975,1022.05335 1676.95385,1020.32489 C1677.14591,1019.55668 1677.33796,1019.30061 1677.53001,1019.30061 C1677.97813,1019.30061 1679.19445,1019.87677 1680.34676,1020.0048 C1682.58736,1020.26087 1684.37983,1020.32489 1684.44385,1020.32489 L1705.44145,1020.32489 C1707.23393,1020.32489 1709.15444,1020.19685 1710.05068,1020.0048 C1710.8829,1019.81275 1711.07495,1019.74873 1711.267,1019.74873 C1711.52307,1019.74873 1711.65111,1020.06882 1711.65111,1020.32489 C1711.65111,1022.11736 1711.52307,1026.34249 1711.52307,1026.85463 C1711.52307,1027.43078 1711.267,1027.62283 1711.07495,1027.62283 C1710.75487,1027.62283 1710.62683,1027.36676 1710.62683,1026.85463 C1710.62683,1026.66258 1710.62683,1026.59856 1710.56282,1025.95839 C1710.30675,1023.39771 1709.47453,1022.75754 1703.0088,1022.69352 C1700.57615,1022.69352 1698.59162,1022.6295 1696.73513,1022.6295 Z M1721.02961,1045.4836 L1721.02961,1035.88103 C1721.02961,1027.4948 1721.02961,1025.95839 1720.90157,1024.22993 C1720.77354,1022.43745 1720.32542,1021.54121 1718.46893,1021.15711 C1718.08482,1021.09309 1717.44465,1021.02907 1716.93252,1021.02907 C1716.4844,1021.02907 1716.10029,1020.83702 1716.10029,1020.64497 C1716.10029,1020.26087 1716.42038,1020.13284 1717.06055,1020.13284 C1718.34089,1020.13284 1720.06935,1020.26087 1723.65431,1020.32489 C1723.97439,1020.32489 1735.36943,1020.32489 1736.64977,1020.26087 C1737.93012,1020.19685 1738.6343,1020.13284 1739.14644,1019.94078 C1739.53054,1019.81275 1739.59456,1019.74873 1739.85063,1019.74873 C1739.97866,1019.74873 1740.1067,1019.87677 1740.1067,1020.19685 C1740.1067,1020.58095 1739.72259,1021.47719 1739.59456,1023.07762 C1739.53054,1024.16591 1739.46652,1025.19018 1739.40251,1026.40651 C1739.40251,1026.98266 1739.27447,1027.36676 1738.95439,1027.36676 C1738.6343,1027.36676 1738.50627,1027.1107 1738.50627,1026.66258 C1738.44225,1025.70232 1738.2502,1025.06215 1738.05815,1024.61403 C1737.67405,1023.33369 1737.09789,1022.88557 1733.89704,1022.69352 C1733.06482,1022.6295 1726.72713,1022.56548 1726.59909,1022.56548 C1726.40704,1022.56548 1726.27901,1022.69352 1726.27901,1023.07762 L1726.27901,1037.6095 C1726.27901,1037.9936 1726.34303,1038.24967 1726.66311,1038.24967 C1727.43132,1038.24967 1733.96106,1038.18565 1735.30542,1038.05762 C1736.77781,1037.9936 1737.73806,1037.80155 1738.2502,1037.09736 C1738.50627,1036.71326 1738.69832,1036.58522 1738.95439,1036.58522 C1739.08242,1036.58522 1739.21046,1036.64924 1739.21046,1036.96933 C1739.21046,1037.28941 1738.95439,1038.50573 1738.76234,1040.36223 C1738.57029,1042.15471 1738.57029,1043.43505 1738.50627,1044.26727 C1738.44225,1044.77941 1738.31422,1044.97146 1738.05815,1044.97146 C1737.73806,1044.97146 1737.67405,1044.58736 1737.67405,1044.13924 C1737.67405,1043.75513 1737.61003,1043.11496 1737.482,1042.60283 C1737.22593,1041.77061 1736.84182,1040.87437 1734.40918,1040.68232 C1732.93678,1040.55428 1727.7514,1040.42625 1726.72713,1040.42625 C1726.34303,1040.42625 1726.27901,1040.6183 1726.27901,1040.87437 L1726.27901,1045.54761 C1726.27901,1047.53214 1726.21499,1053.16564 1726.27901,1054.25393 C1726.40704,1056.62257 1726.72713,1057.83889 1728.07149,1058.41504 C1729.03174,1058.86316 1730.56815,1058.9912 1732.74473,1058.9912 C1733.96106,1058.9912 1736.0096,1059.05521 1737.61003,1058.6071 C1739.53054,1058.03094 1739.97866,1056.7506 1740.4908,1054.38197 C1740.61883,1053.7418 1740.81088,1053.48573 1741.06695,1053.48573 C1741.45105,1053.48573 1741.45105,1054.06188 1741.45105,1054.44599 C1741.45105,1054.89411 1740.93892,1058.92718 1740.74687,1060.01547 C1740.4908,1061.29581 1740.04268,1061.42385 1737.93012,1061.42385 C1733.70499,1061.42385 1731.91251,1061.29581 1729.67191,1061.29581 C1727.43132,1061.2318 1724.48653,1061.10376 1722.1179,1061.10376 C1720.64551,1061.10376 1719.42918,1061.29581 1717.89277,1061.29581 C1717.31662,1061.29581 1716.99653,1061.16778 1716.99653,1060.84769 C1716.99653,1060.59162 1717.2526,1060.39957 1717.57269,1060.39957 C1717.95679,1060.39957 1718.40491,1060.33556 1718.85303,1060.20752 C1720.00534,1059.95145 1720.77354,1059.11923 1720.90157,1055.15017 C1720.96559,1052.97359 1721.02961,1050.34889 1721.02961,1045.4836 Z M1791.8645,1020.96506 L1795.89757,1054.25393 C1796.08962,1055.79034 1796.47373,1059.3753 1798.97039,1059.95145 C1800.05868,1060.20752 1801.33902,1060.33556 1802.23526,1060.39957 C1802.49133,1060.39957 1803.06749,1060.46359 1803.06749,1060.78368 C1803.06749,1061.10376 1802.81142,1061.29581 1802.10723,1061.29581 C1800.95492,1061.29581 1794.04108,1061.03974 1791.99253,1060.91171 C1790.58416,1060.78368 1790.07202,1060.65564 1790.07202,1060.33556 C1790.07202,1060.1435 1790.32809,1059.88744 1790.64817,1059.7594 C1790.96826,1059.63137 1791.16031,1058.86316 1791.03228,1057.96692 L1788.21552,1030.56762 L1774.64391,1058.09496 C1773.42758,1060.59162 1773.23553,1061.16778 1772.65938,1061.16778 C1772.27527,1061.16778 1771.95519,1060.59162 1770.73886,1058.41504 C1769.71459,1056.55855 1764.59323,1046.31582 1764.20912,1045.73966 C1763.82502,1044.97146 1757.55135,1032.55215 1757.03921,1031.20779 L1754.67058,1055.85436 C1754.60656,1056.7506 1754.60656,1057.32675 1754.60656,1058.28701 C1754.60656,1058.9912 1754.92665,1059.95145 1756.20699,1060.20752 C1756.91118,1060.33556 1757.3593,1060.33556 1757.99947,1060.39957 C1758.5116,1060.46359 1758.63964,1060.65564 1758.63964,1060.78368 C1758.63964,1061.2318 1758.25554,1061.29581 1757.55135,1061.29581 C1755.5028,1061.29581 1752.75007,1061.10376 1752.23793,1061.10376 C1751.59776,1061.10376 1748.90904,1061.29581 1747.30862,1061.29581 C1746.73246,1061.29581 1746.34836,1061.2318 1746.34836,1060.78368 C1746.34836,1060.65564 1746.60443,1060.39957 1747.18058,1060.39957 C1747.6287,1060.39957 1747.69272,1060.39957 1748.39691,1060.33556 C1749.93332,1060.20752 1750.50947,1058.67111 1750.82955,1056.11043 L1755.1187,1020.96506 C1755.24673,1019.87677 1755.5028,1019.36463 1755.82289,1019.36463 C1756.14297,1019.36463 1756.33502,1019.55668 1756.78314,1020.3889 L1773.93972,1053.61376 L1790.26407,1020.45292 C1790.58416,1019.74873 1790.84022,1019.36463 1791.22433,1019.36463 C1791.60843,1019.36463 1791.80048,1019.94078 1791.8645,1020.96506 Z M1815.1347,1062 C1812.44599,1062 1809.94932,1061.67991 1807.51667,1060.59162 C1806.68445,1060.20752 1806.68445,1059.95145 1806.68445,1058.41504 C1806.68445,1055.47026 1806.8765,1053.29368 1806.94052,1052.39744 C1807.00454,1051.82129 1807.13257,1051.5012 1807.45265,1051.5012 C1807.77274,1051.5012 1807.90077,1051.69325 1807.90077,1052.14137 C1807.90077,1052.52547 1807.90077,1053.29368 1808.09283,1054.06188 C1808.92505,1058.22299 1812.70205,1059.82342 1816.41504,1059.82342 C1821.72846,1059.82342 1824.28914,1056.17445 1824.28914,1052.97359 C1824.28914,1049.32462 1822.6247,1047.08402 1817.95145,1043.30702 L1815.39077,1041.32249 C1809.24513,1036.39317 1807.96479,1033.00027 1807.96479,1029.22326 C1807.96479,1023.33369 1812.63804,1019.36463 1819.80795,1019.36463 C1822.04855,1019.36463 1823.58496,1019.55668 1824.99333,1019.87677 C1826.20966,1020.13284 1826.72179,1020.19685 1827.16991,1020.19685 C1827.61803,1020.19685 1827.74607,1020.32489 1827.74607,1020.58095 C1827.74607,1020.83702 1827.49,1023.07762 1827.49,1026.79061 C1827.49,1027.75087 1827.36196,1028.13497 1827.04188,1028.13497 C1826.72179,1028.13497 1826.65778,1027.8789 1826.59376,1027.43078 C1826.52974,1026.85463 1826.40171,1025.51027 1825.82555,1024.42198 C1825.50547,1023.84583 1824.03308,1021.41318 1818.65564,1021.41318 C1814.81462,1021.41318 1811.93385,1023.71779 1811.93385,1027.55882 C1811.93385,1030.56762 1813.47026,1032.42411 1818.78368,1036.45719 L1820.25607,1037.6095 C1826.91384,1042.73086 1828.64231,1046.12377 1828.64231,1050.66898 C1828.64231,1052.97359 1827.68205,1057.07069 1823.77701,1059.7594 C1821.28034,1061.35983 1818.20752,1062 1815.1347,1062 Z M1657.6,856.8 C1602.8,856.8 1580,814.2 1580,778.2 C1580,745.8 1603.6,700 1658.8,700 C1703.8,700 1737.4,728.4 1737.4,775 C1737.4,819.8 1705.8,856.8 1657.6,856.8 Z M1663,849.2 C1681,849.2 1718.2,838.8 1718.2,780.6 C1718.2,732.6 1689,706.8 1657.4,706.8 C1624,706.8 1599,728.8 1599,772.6 C1599,819.2 1627,849.2 1663,849.2 Z M1782.06,757.625871 L1782.06,802.999005 C1782.06,833.625871 1782.06,845.347264 1776.06,858.770149 C1771.86,868.222886 1763.06,877.108458 1746.86,887.695522 C1744.26,889.397015 1741.06,891.476617 1739.06,892.421891 C1738.66,892.610945 1738.26,892.8 1737.66,892.8 C1737.06,892.8 1736.26,892.421891 1736.26,891.665672 C1736.26,890.531343 1737.26,889.964179 1739.06,888.829851 C1741.46,887.506468 1744.26,885.237811 1746.06,883.536318 C1759.06,871.058706 1765.26,861.038806 1765.26,812.262687 L1765.26,757.625871 C1765.26,728.133333 1765.26,722.839801 1764.86,716.79005 C1764.46,710.362189 1762.86,707.337313 1756.26,706.01393 C1754.66,705.635821 1751.86,705.446766 1750.06,705.446766 C1748.66,705.446766 1747.86,704.879602 1747.86,704.123383 C1747.86,703.367164 1748.66,702.8 1750.86,702.8 C1759.86,702.8 1772.66,703.367164 1773.66,703.367164 C1774.66,703.367164 1787.26,702.8 1793.26,702.8 C1795.46,702.8 1796.46,703.178109 1796.46,704.312438 C1796.46,705.068657 1795.46,705.446766 1794.26,705.446766 C1792.86,705.446766 1791.26,705.635821 1789.46,705.824876 C1784.06,706.39204 1782.86,710.173134 1782.46,716.79005 C1782.06,722.839801 1782.06,728.133333 1782.06,757.625871 Z M1832.8,856.8 C1823.4,856.8 1814.2,855.4 1806,851.4 C1803.2,850 1803,849.2 1803,843.8 C1803,833.8 1803.8,825.8 1804,822.6 C1804.2,820.4 1804.6,819.4 1805.6,819.4 C1806.8,819.4 1807,820 1807,821.6 C1807,823.4 1807,826.2 1807.6,829 C1810.6,843.8 1823.8,849.4 1837.2,849.4 C1856.4,849.4 1865.8,835.6 1865.8,822.8 C1865.8,809 1860,801 1842.8,786.8 L1833.8,779.4 C1812.6,762 1807.8,749.6 1807.8,736 C1807.8,714.6 1823.8,700 1849.2,700 C1857,700 1862.8,700.8 1867.8,702 C1871.6,702.8 1873.2,703 1874.8,703 C1876.4,703 1876.8,703.4 1876.8,704.4 C1876.8,705.4 1876,712 1876,725.6 C1876,728.8 1875.6,730.2 1874.6,730.2 C1873.4,730.2 1873.2,729.2 1873,727.6 C1872.8,725.2 1871.6,719.8 1870.4,717.6 C1869.2,715.4 1863.8,707 1845.4,707 C1831.6,707 1820.8,715.6 1820.8,730.2 C1820.8,741.6 1826,748.8 1845.2,763.8 L1850.8,768.2 C1874.4,786.8 1880,799.2 1880,815.2 C1880,823.4 1876.8,838.6 1863,848.4 C1854.4,854.4 1843.6,856.8 1832.8,856.8 Z M1580,880 L1730,880 L1730,883 L1580,883 L1580,880 Z M1770,880 L1880,880 L1880,883 L1770,883 L1770,880 Z" id="OJS"></path>
        </g>
    </g>
</svg>